<svg width="52" height="52" viewBox="0 0 52 52" fill="none" xmlns="http://www.w3.org/2000/svg">
<g clip-path="url(#clip0_201_403)">
<g filter="url(#filter0_f_201_403)">
<path d="M30.3332 35.691L25.9998 44.2001L21.6665 35.691L25.9998 26.8667L30.3332 35.691Z" fill="#D7C9FF"/>
</g>
<path d="M50.7174 13.676C50.0587 13.208 49.2094 13.468 48.7587 13.5893L42.692 15.392C39.2774 16.4146 35.7414 17.4546 32.3614 18.772C31.2694 19.2053 30.1254 19.6906 29.276 20.5573L29.2414 20.592C28.392 21.4586 26.7974 23.088 26.7974 26.8666C26.7974 28.9813 27.3694 30.94 28.4267 32.5346C29.4147 34.0253 32.1187 35.3426 33.1934 35.4813C33.2454 35.4813 33.3147 35.4986 33.384 35.4986C33.54 35.4986 33.7134 35.464 33.852 35.3426C34.164 35.0653 34.1814 34.5106 34.06 33.9213C36.036 34.58 39.0694 34.7186 39.5547 33.8866C39.8147 33.4186 39.5374 32.8986 39.156 32.5C40.976 32.136 42.6227 31.2173 44.0267 30.316C46.02 29.0333 48.0307 26.7106 47.84 25.272C47.8054 25.012 47.7014 24.7866 47.528 24.596C49.036 23.244 49.972 21.892 50.336 20.9386C50.6827 20.02 50.5094 19.4826 50.3187 19.2053C50.128 18.928 49.7467 18.772 49.3307 18.72C49.8854 18.044 50.388 17.316 50.8214 16.5533C51.3587 15.6346 51.636 14.3173 50.7174 13.676Z" fill="url(#paint0_linear_201_403)"/>
<path d="M22.7414 20.5747C21.8921 19.708 20.7481 19.2227 19.6561 18.7893C16.2588 17.472 12.7401 16.4147 9.32544 15.4093L3.25877 13.6067C2.80811 13.468 1.95877 13.2253 1.30011 13.6933C0.381438 14.3347 0.658772 15.652 1.19611 16.5707C1.62944 17.3333 2.13211 18.0613 2.68677 18.7373C2.27077 18.7893 1.88944 18.9453 1.69877 19.2227C1.50811 19.5 1.33477 20.0373 1.68144 20.956C2.04544 21.9267 2.98144 23.2787 4.48944 24.6133C4.31611 24.804 4.21211 25.0293 4.17744 25.2893C3.98677 26.728 5.99744 29.0507 7.99077 30.3333C9.39477 31.2347 11.0241 32.1533 12.8614 32.5173C12.4801 32.916 12.2028 33.4187 12.4628 33.904C12.9481 34.7533 15.9641 34.6147 17.9574 33.9387C17.8361 34.528 17.8534 35.0827 18.1654 35.36C18.3041 35.4813 18.4774 35.516 18.6334 35.516C18.7028 35.516 18.7721 35.516 18.8241 35.4987C19.8988 35.36 22.6028 34.0427 23.5908 32.552C24.6481 30.9573 25.2201 28.9987 25.2201 26.884C25.2201 23.1053 23.6428 21.476 22.7761 20.6093L22.7414 20.5747Z" fill="url(#paint1_linear_201_403)"/>
<path d="M39.0001 15.4093C39.0001 15.4093 37.4228 14.9413 32.9508 13.7973C28.2015 12.5667 26.0175 12.1333 26.0175 12.1333C26.0175 12.1333 23.8335 12.5667 19.0841 13.7973C14.5775 14.9413 13.0001 15.4093 13.0001 15.4093C13.0001 15.4093 12.2548 19.9333 14.3001 28.3053C15.9468 35.0653 21.3375 39.3987 26.0001 41.0107C30.6628 39.3987 36.0535 35.0653 37.7001 28.3053C39.7281 19.9333 39.0001 15.4093 39.0001 15.4093Z" fill="url(#paint2_linear_201_403)"/>
<path opacity="0.15" d="M38.9998 15.4093C38.9998 15.4093 37.4224 14.9413 32.9504 13.7973C28.2011 12.5667 26.0171 12.1333 26.0171 12.1333V41.028C30.6798 39.416 36.0704 35.0827 37.7171 28.3227C39.7278 19.9333 38.9998 15.4093 38.9998 15.4093Z" fill="white"/>
<path d="M27.9498 25.8581L25.9998 29.8999L24.0498 25.8581L25.9998 21.6665L27.9498 25.8581Z" fill="white"/>
</g>
<defs>
<filter id="filter0_f_201_403" x="7.6665" y="12.8667" width="36.6667" height="45.3335" filterUnits="userSpaceOnUse" color-interpolation-filters="sRGB">
<feFlood flood-opacity="0" result="BackgroundImageFix"/>
<feBlend mode="normal" in="SourceGraphic" in2="BackgroundImageFix" result="shape"/>
<feGaussianBlur stdDeviation="7" result="effect1_foregroundBlur_201_403"/>
</filter>
<linearGradient id="paint0_linear_201_403" x1="39.0573" y1="13.4071" x2="39.0573" y2="35.4986" gradientUnits="userSpaceOnUse">
<stop stop-color="#967BFF"/>
<stop offset="0.504575" stop-color="#5634DD"/>
<stop offset="1" stop-color="#200F52"/>
</linearGradient>
<linearGradient id="paint1_linear_201_403" x1="12.9602" y1="13.4189" x2="12.9602" y2="35.516" gradientUnits="userSpaceOnUse">
<stop stop-color="#967BFF"/>
<stop offset="0.504575" stop-color="#5634DD"/>
<stop offset="1" stop-color="#200F52"/>
</linearGradient>
<linearGradient id="paint2_linear_201_403" x1="25.9975" y1="12.1333" x2="25.9975" y2="41.0107" gradientUnits="userSpaceOnUse">
<stop stop-color="#AA95FF"/>
<stop offset="0.473325" stop-color="#5E38F4"/>
<stop offset="1" stop-color="#1D0C88"/>
</linearGradient>
<clipPath id="clip0_201_403">
<rect width="52" height="52" fill="white"/>
</clipPath>
</defs>
</svg>
