<svg width="53" height="52" viewBox="0 0 53 52" fill="none" xmlns="http://www.w3.org/2000/svg">
<path d="M14.2701 17.4354C14.2876 16.9837 14.3156 16.6248 14.34 16.374C14.5574 16.2354 14.8862 16.0408 15.3306 15.8177C16.2646 15.3487 17.7114 14.7524 19.711 14.2859L19.7144 14.2851C22.642 13.5912 24.506 13.48 25.4638 13.48C25.7385 13.48 25.9349 13.4918 26.0553 13.5023C26.1155 13.5075 26.1568 13.5124 26.1793 13.5154L26.1982 13.518L26.3651 13.5475L26.5321 13.518L26.5509 13.5154C26.5735 13.5124 26.6147 13.5075 26.6749 13.5023C26.7953 13.4918 26.9917 13.48 27.2665 13.48C28.2197 13.48 30.0845 13.6074 33.0198 14.286C35.0102 14.7525 36.4571 15.3486 37.394 15.8181C37.8396 16.0414 38.1703 16.2362 38.3895 16.3752C38.4133 16.6259 38.4405 16.9836 38.4571 17.4335C38.4926 18.3988 38.4789 19.7845 38.2791 21.4431C37.8795 24.762 36.7379 29.1514 33.7746 33.4586L33.7726 33.4616C32.2406 35.7057 30.4171 37.4309 28.8977 38.6111C28.139 39.2004 27.4632 39.6483 26.9477 39.9529C26.7044 40.0968 26.5022 40.2055 26.3482 40.281C26.1948 40.2056 25.9935 40.097 25.7512 39.9535C25.2371 39.6489 24.5628 39.201 23.8049 38.6115C22.2873 37.4312 20.4629 35.7052 18.9216 33.4595C15.9671 29.1528 14.8339 24.7637 14.4405 21.445C14.2439 19.7864 14.2328 18.4007 14.2701 17.4354Z" fill="black" fill-opacity="0" stroke="#E0E0E0" stroke-width="2"/>
</svg>
