<svg width="53" height="52" viewBox="0 0 53 52" fill="none" xmlns="http://www.w3.org/2000/svg">
<g clip-path="url(#clip0_201_443)">
<g filter="url(#filter0_f_201_443)">
<path d="M30.4372 35.6909L26.1038 44.2L21.7705 35.6909L26.1038 26.8667L30.4372 35.6909Z" fill="white"/>
</g>
<path d="M50.8214 13.676C50.1627 13.208 49.3134 13.468 48.8627 13.5894L42.796 15.392C39.3814 16.4147 35.8454 17.4547 32.4654 18.772C31.3734 19.2054 30.2294 19.6907 29.38 20.5574L29.3454 20.592C28.496 21.4587 26.9014 23.088 26.9014 26.8667C26.9014 28.9814 27.4734 30.94 28.5307 32.5347C29.5187 34.0254 32.2227 35.3427 33.2974 35.4814C33.3494 35.4814 33.4187 35.4987 33.488 35.4987C33.644 35.4987 33.8174 35.464 33.956 35.3427C34.268 35.0654 34.2854 34.5107 34.164 33.9214C36.14 34.58 39.1734 34.7187 39.6587 33.8867C39.9187 33.4187 39.6414 32.8987 39.26 32.5C41.08 32.136 42.7267 31.2174 44.1307 30.316C46.124 29.0334 48.1347 26.7107 47.944 25.272C47.9094 25.012 47.8054 24.7867 47.632 24.596C49.14 23.244 50.076 21.892 50.44 20.9387C50.7867 20.02 50.6134 19.4827 50.4227 19.2054C50.232 18.928 49.8507 18.772 49.4347 18.72C49.9894 18.044 50.492 17.316 50.9254 16.5534C51.4627 15.6347 51.74 14.3174 50.8214 13.676Z" fill="url(#paint0_linear_201_443)"/>
<path d="M1.70392 13.676C2.36258 13.208 3.21192 13.468 3.66259 13.5894L9.72925 15.392C13.1439 16.4147 16.6799 17.4547 20.0599 18.772C21.1519 19.2054 22.2959 19.6907 23.1453 20.5574L23.1799 20.592C24.0293 21.4587 25.6239 23.088 25.6239 26.8667C25.6239 28.9814 25.0519 30.94 23.9946 32.5347C23.0066 34.0254 20.3026 35.3427 19.2279 35.4814C19.1759 35.4814 19.1066 35.4987 19.0373 35.4987C18.8813 35.4987 18.7079 35.464 18.5693 35.3427C18.2573 35.0654 18.2399 34.5107 18.3613 33.9214C16.3853 34.58 13.3519 34.7187 12.8666 33.8867C12.6066 33.4187 12.8839 32.8987 13.2653 32.5C11.4453 32.136 9.79859 31.2174 8.39459 30.316C6.40125 29.0334 4.39059 26.7107 4.58125 25.272C4.61592 25.012 4.71992 24.7867 4.89325 24.596C3.38525 23.244 2.44925 21.892 2.08525 20.9387C1.73859 20.02 1.91192 19.4827 2.10259 19.2054C2.29325 18.928 2.67458 18.772 3.09058 18.72C2.53592 18.044 2.03325 17.316 1.59992 16.5534C1.06258 15.6347 0.785247 14.3174 1.70392 13.676Z" fill="url(#paint1_linear_201_443)"/>
<path d="M39.1039 15.4093C39.1039 15.4093 37.5266 14.9413 33.0546 13.7973C28.3053 12.5666 26.1213 12.1333 26.1213 12.1333C26.1213 12.1333 23.9373 12.5666 19.1879 13.7973C14.6813 14.9413 13.1039 15.4093 13.1039 15.4093C13.1039 15.4093 12.3586 19.9333 14.4039 28.3053C16.0506 35.0653 21.4413 39.3986 26.1039 41.0106C30.7666 39.3986 36.1573 35.0653 37.8039 28.3053C39.8319 19.9333 39.1039 15.4093 39.1039 15.4093Z" fill="url(#paint2_linear_201_443)"/>
<path d="M28.0538 25.858L26.1038 29.8999L24.1538 25.858L26.1038 21.6665L28.0538 25.858Z" fill="white"/>
<path opacity="0.15" d="M39.0867 15.276C39.0867 15.276 37.5093 14.808 33.0373 13.664C28.288 12.4333 26.104 12 26.104 12V40.8947C30.7667 39.2827 36.1573 34.9493 37.804 28.1893C39.8147 19.8 39.0867 15.276 39.0867 15.276Z" fill="white"/>
</g>
<defs>
<filter id="filter0_f_201_443" x="7.77051" y="12.8667" width="36.6667" height="45.3335" filterUnits="userSpaceOnUse" color-interpolation-filters="sRGB">
<feFlood flood-opacity="0" result="BackgroundImageFix"/>
<feBlend mode="normal" in="SourceGraphic" in2="BackgroundImageFix" result="shape"/>
<feGaussianBlur stdDeviation="7" result="effect1_foregroundBlur_201_443"/>
</filter>
<linearGradient id="paint0_linear_201_443" x1="39.1613" y1="13.4072" x2="39.1613" y2="35.4987" gradientUnits="userSpaceOnUse">
<stop stop-color="#C3C3C3"/>
<stop offset="0.348322" stop-color="#5F5F5F"/>
<stop offset="0.738955" stop-color="#343434"/>
<stop offset="1" stop-color="#1B1B1B"/>
</linearGradient>
<linearGradient id="paint1_linear_201_443" x1="13.364" y1="13.4072" x2="13.364" y2="35.4987" gradientUnits="userSpaceOnUse">
<stop stop-color="#C3C3C3"/>
<stop offset="0.348322" stop-color="#5F5F5F"/>
<stop offset="0.738955" stop-color="#343434"/>
<stop offset="1" stop-color="#1B1B1B"/>
</linearGradient>
<linearGradient id="paint2_linear_201_443" x1="26.1043" y1="12" x2="26.1043" y2="41" gradientUnits="userSpaceOnUse">
<stop offset="0.0001" stop-color="#D9D9D9"/>
<stop offset="0.332697" stop-color="#747474"/>
<stop offset="0.639994" stop-color="#2F2F2F"/>
<stop offset="1"/>
</linearGradient>
<clipPath id="clip0_201_443">
<rect width="52" height="52" fill="white" transform="translate(0.104004)"/>
</clipPath>
</defs>
</svg>
